<svg width="189" height="60" viewBox="0 0 189 60" fill="none" xmlns="http://www.w3.org/2000/svg">
<path d="M29.9226 2.33716C29.9466 2.37198 30.0554 2.38503 30.0989 2.45249C30.3785 2.88987 30.2012 3.02152 30.867 3.20539V5.90258C31.2043 6.64461 31.3403 7.43451 31.5035 8.20374C31.571 8.52144 31.5873 9.06218 31.695 9.31133C31.7962 9.54635 32.1259 9.48977 32.2249 9.65841C32.3282 9.83685 32.2369 10.0621 32.2793 10.2394C32.3 10.3243 32.4708 10.309 32.4914 10.3896C32.6024 10.84 32.3348 11.1436 32.3108 11.471C32.2913 11.7343 32.4632 12.8746 32.5752 13.1172C32.77 13.5383 33.9363 13.3 34.4477 13.5274C34.6675 13.6253 35.1147 14.2596 35.4106 14.413C35.5455 15.0332 35.3323 15.7807 35.341 16.3541C35.3616 17.5824 35.65 18.4702 35.6402 19.7225C35.6347 20.4026 35.6815 21.8823 36.6683 21.7376C36.9262 21.6995 37.1144 21.4536 37.4125 21.5384C37.7618 21.6385 38.3428 22.3142 38.7726 22.4154L38.79 23.7526C39.05 23.9963 40.0716 23.9702 40.397 23.8331C41.2913 23.4577 40.2479 21.7245 40.9344 21.1848C41.4937 20.7453 41.201 20.9487 41.4806 20.2394C42.1378 18.5747 42.4664 16.9536 43.0985 15.3324C43.302 14.8112 43.6001 14.7068 43.9047 14.2814C44.2997 14.2531 44.6043 14.3739 45.0308 14.3282C45.4573 14.2825 46.0536 13.8843 46.4616 13.9506C46.591 13.9713 47.5833 14.8809 47.6888 15.0648C47.9652 15.5424 47.8912 16.0581 48.21 16.6152C48.4341 17.008 48.4624 17.1755 48.63 17.4954C48.6746 17.5813 49.2795 18.1145 49.3317 18.3342C49.6581 19.7193 49.1326 22.4774 49.3405 24.0724C49.619 26.2006 50.5873 28.7694 51.1019 31.0129C51.1738 31.3251 51.5339 32.2043 51.5676 32.4523C51.5959 32.6601 51.4305 33.0496 51.5045 33.3097L52.1464 33.6676C52.1867 33.8657 52.1312 34.0887 52.1867 34.2802C52.4848 35.3018 52.6001 36.132 53.006 37.1591C53.2758 37.8402 53.2116 37.9609 53.3781 38.5278C53.4303 38.7073 53.661 38.7846 53.7328 38.9336C53.8318 39.1404 53.7795 39.42 53.8927 39.6169C53.9874 39.7812 54.5009 39.9052 54.6064 40.1261C54.712 40.347 54.8447 41.5655 54.8915 41.6352C54.9383 41.7048 55.2255 41.6863 55.2908 41.7799C55.3463 41.8582 55.3082 42.0693 55.3648 42.1901C55.5737 42.634 55.7108 42.8788 55.7467 43.389C55.6194 43.5153 55.0406 42.733 54.5488 42.8886C54.2789 42.9745 53.5979 43.6077 53.2812 43.8047C51.6536 44.8133 49.7485 45.8034 47.9184 46.3778C47.5779 46.4845 46.6422 46.8032 46.3528 46.7652C45.8381 46.6966 43.29 42.8396 42.8711 42.845C38.8683 45.1995 34.7034 47.4539 30.1022 48.395C29.9216 45.3214 29.9292 42.2151 30.5254 39.1915C30.8148 38.802 33.8058 38.5942 34.4847 38.4778C37.7259 37.9207 41.8984 37.0002 44.6478 35.1615C44.9938 34.9297 46.0492 34.1039 45.1494 33.9288C44.4933 33.8015 44.3106 34.0876 43.8177 34.2214C42.5349 34.5707 41.2184 34.7796 39.8823 34.7948L41.695 34.0539C42.4272 33.6709 43.9678 32.374 43.7959 31.4775C43.735 31.1576 43.1877 30.9694 42.8842 30.99C41.7668 31.4416 40.5798 31.7234 39.4504 32.1314C35.0309 33.7297 31.1608 36.1037 26.3529 36.5346C25.6903 36.5933 24.2465 36.7445 23.6644 36.6151C23.4207 36.5607 23.1487 36.3115 23.1563 36.0417C23.363 34.2541 23.7569 32.3892 23.9081 30.6049C23.9875 29.6714 24.1018 28.1286 24.0223 27.2288C23.9027 25.8709 22.7689 25.5162 21.6287 25.1648C20.5777 24.8406 19.0806 24.5153 17.9915 24.4543C13.9299 24.2291 16.6173 25.9188 18.2243 26.9415C19.3036 27.6292 21.3806 28.2841 21.4133 29.741L20.5102 35.7991C19.9053 36.8795 18.4299 35.6979 17.9599 36.9447C17.0275 39.4156 19.073 39.6941 21.0238 39.804C23.2705 39.9302 25.4466 39.1752 27.5551 39.1414C27.7151 39.1393 27.8641 39.1349 27.9947 39.2459C28.2765 39.47 28.1187 40.8311 28.1427 41.2729C28.1557 41.5307 28.2515 41.769 28.2602 42.0258C28.3167 43.6491 28.2221 45.2876 28.2406 46.912L28.0926 47.0872L25.4999 44.8133C22.1542 47.2537 18.3668 49.7344 14.1323 50.0858L9.72256 46.3245L3.69604 49.0478C3.72868 48.3482 3.64817 47.6258 3.69604 46.9273C3.7722 45.8186 4.00939 44.8644 3.91909 43.6567C3.90059 43.4162 3.7178 43.2879 3.70692 43.1247C3.68734 42.8309 3.92779 42.3326 3.92126 41.9224C3.91256 41.41 3.53719 40.7049 3.75262 40.2371C3.83313 40.0619 4.17586 39.9215 4.22155 39.7235C4.28901 39.4309 4.00613 39.2035 4.56428 38.8749C4.14866 38.6007 4.18347 38.024 4.24549 37.5747C4.27378 37.3691 4.44024 37.208 4.4533 37.0198C4.47397 36.7217 4.24114 36.2462 4.34668 35.8817H4.78297C4.73727 35.2224 5.1616 34.8329 4.97337 34.1126C4.8983 33.8276 4.48268 33.6285 4.56101 33.2292C5.07565 33.0496 4.499 32.4795 4.45874 32.1172C4.40543 31.645 4.81779 31.101 4.35103 30.7126C5.1072 30.3612 4.54578 30.0859 4.57625 29.6202C4.59583 29.3221 4.89177 28.4408 4.98752 28.1764C5.49236 26.7827 5.40967 25.5772 5.89166 24.2073C6.30619 23.0301 6.57928 21.8311 6.97206 20.7148C7.24297 19.9456 7.3224 19.3559 7.52259 18.6596C7.57155 18.4898 7.90775 18.1449 8.00676 17.8392C8.1569 17.3801 8.17975 16.2159 8.35819 15.933C8.45284 15.7839 8.74661 15.8068 8.90437 15.6925C9.30694 15.3999 9.77152 14.8678 10.1099 14.5055C10.8519 13.7102 11.8551 12.9823 12.0694 11.8431C12.8887 11.6843 12.8201 12.7027 13.1999 13.0389C13.3848 13.2032 13.6144 13.1977 13.7939 13.3141C13.8962 13.3805 13.9256 13.572 14.0246 13.6308C14.1562 13.7102 14.3706 13.6536 14.4358 13.7047C14.5066 13.7602 14.8482 15.1757 14.9429 15.4282C15.0103 15.6066 15.2159 16.2344 15.2388 16.2746C15.2823 16.3519 15.5554 16.353 15.6294 16.5902C15.724 16.8959 15.6065 17.3724 15.674 17.7424C15.7697 18.2657 16.1821 18.9925 16.6608 19.2569C17.0949 19.4962 18.0372 19.5561 18.5061 19.6943C18.7966 19.7802 19.4733 20.5516 19.8835 20.3819C20.5211 20.1175 19.9532 19.6301 20.0054 19.4212C20.0489 19.2471 20.3677 19.1274 20.4156 18.9403C20.4634 18.7531 20.3296 18.5497 20.3492 18.3408C20.384 17.9687 20.6005 17.6858 20.6419 17.4355C20.693 17.1222 20.6016 16.7806 20.6549 16.4694C20.705 16.1789 21.0249 15.8775 21.0771 15.5859C21.2316 14.7122 21.4383 12.9029 21.8452 12.1391C21.9236 11.9911 22.1433 11.9933 22.2239 11.8388C22.288 11.7148 22.8712 9.97176 22.9071 9.80094C23.2052 8.36911 21.9094 6.81978 22.5209 5.38469C22.5883 5.22584 22.7689 5.22584 22.8582 5.06372C23.3108 4.23901 22.9876 4.36631 23.7492 3.57206C24.2486 3.05198 24.8144 2.28167 25.3573 1.86496C25.4944 1.75942 25.7468 1.78771 25.9264 1.61689C26.3039 1.25785 26.3866 0.22641 26.9219 0.11108C27.1504 0.0621198 28.5724 -0.0542978 28.6965 0.0294793C28.963 0.410285 29.0501 1.14796 29.2949 1.49612C29.482 1.7616 29.7018 2.01837 29.9259 2.33607L29.9226 2.33716Z" fill="#31A239"/>
<path d="M44.5901 47.5986C44.6184 47.6443 45.2353 48.3721 45.2777 48.4048C45.4213 48.5158 45.9098 48.5201 46.0241 48.7192C46.1383 48.9183 46.0175 49.2132 46.1253 49.3796C46.2188 49.5254 46.5713 49.4972 46.7019 49.619C46.8162 49.7256 46.851 50.0912 47.0022 50.2424C47.1719 50.4122 47.4178 50.3697 47.5331 50.4524C47.6376 50.5264 47.5636 50.7201 47.6137 50.7669C47.6637 50.8137 47.9194 50.7897 48.0924 50.8909C48.3143 51.0215 48.632 51.5785 48.8714 51.6438C49.1108 51.7091 50.065 51.2369 50.3533 51.0998C51.8123 50.4067 53.0711 49.5396 54.3071 48.6093C54.4823 48.4777 54.8424 48.3265 55.0437 48.1698C55.2178 48.172 55.554 48.6855 55.7226 48.8291C56.7563 49.7082 57.8932 50.6135 59.151 51.2434C59.4502 51.3936 59.8103 51.4229 60.0943 51.6036C59.9061 51.7657 59.0433 51.906 58.8692 51.8603C58.682 51.8114 58.5417 51.5002 58.348 51.3936C57.6691 51.016 56.6366 50.4024 55.9544 50.0901C54.8544 49.5875 54.4464 50.0238 53.4422 50.4688C51.8776 51.1629 50.1759 52.0834 48.3981 52.2966C47.9205 52.3532 47.4309 52.2716 46.9456 52.4185C46.8912 52.0877 47.0305 52.2455 47.21 52.1987C47.4972 52.1247 47.8182 52.0975 48.0978 51.9941C48.632 51.7972 47.5582 51.5339 47.3406 51.424C46.6671 51.0813 46.1296 50.7886 45.6411 50.188C45.4485 49.9519 45.3147 49.5026 45.0916 49.3231C44.8686 49.1436 44.4715 49.1381 44.3333 48.9934C44.1951 48.8487 44.2582 48.6213 44.1723 48.5016C44.0972 48.3972 43.8774 48.3961 43.7469 48.2742C43.5967 48.135 43.1082 47.5148 43.032 47.468C42.6752 47.2482 41.1835 47.7302 40.7516 47.9043C40.0781 48.1763 39.496 48.667 38.8693 48.9575C38.5614 49.1 38.0489 49.1207 37.7824 49.2839C37.3733 49.5341 36.7324 50.0684 36.1852 50.1968C35.9066 50.262 35.7293 50.1032 35.4877 50.1326C35.1885 50.1685 34.5912 50.5765 34.2789 50.6722C33.1431 51.0226 31.8527 51.0574 30.7124 51.4175C30.6025 51.3533 30.1978 51.0693 30.4241 50.9475C31.8135 50.6711 33.167 50.2348 34.4509 49.6473C34.9448 49.421 35.4475 49.1871 35.9404 48.9619C36.2124 48.8378 36.3875 48.4733 36.6476 48.3645C36.9772 48.2264 37.284 48.3395 37.6387 48.16C38.0315 47.962 38.2132 47.3277 38.6038 47.1677C38.8464 47.0676 39.0967 47.1188 39.3284 47.023C40.2619 46.6368 41.3271 46.0133 42.1333 45.4497C42.7959 44.9873 43.13 45.2506 43.6217 45.7881C44.2376 46.4616 44.268 47.0785 44.589 47.5942L44.5901 47.5986Z" fill="#31A239"/>
<path d="M45.17 52.3487C45.9838 53.1364 46.3156 54.2962 46.8999 55.2319C48.1294 55.2874 49.4905 54.0253 50.5056 53.8556C51.3901 53.7076 51.2063 54.5693 51.3053 54.6933C51.3466 54.7445 51.6589 54.7292 51.7709 54.8054C51.8721 54.874 51.8068 55.0448 51.8591 55.1111C51.9875 55.2765 53.1647 56.3536 53.3899 56.5223C53.5498 56.642 54.0046 56.7257 54.2625 56.9009C55.6715 57.8573 54.2092 58.2392 53.2506 57.8051C52.7219 57.5646 52.3759 56.8737 52.1289 56.6985C51.9951 56.6028 51.7013 56.6235 51.6382 56.5343C51.5686 56.4374 51.6676 56.1894 51.463 56.0033C51.4152 55.9598 50.3892 55.4299 50.3174 55.4103C49.5264 55.1971 49.5927 55.5028 49.1434 55.6573C47.6028 56.185 45.8413 56.7421 44.2506 57.1784C42.6599 57.6147 41.1726 57.8551 39.6113 58.0803L39.4981 57.8616C40.6471 57.5222 41.8493 57.2796 43.0059 56.9118C44.1625 56.5441 45.1917 56.0773 46.2906 55.6845C46.0175 55.3951 45.8021 54.9207 45.5192 54.6629C45.2973 54.4616 44.6434 54.2298 44.602 54.1667C44.4889 53.9937 44.5987 53.6086 44.4508 53.367C44.3888 53.2659 44.1788 53.2202 44.07 53.0711C43.9351 52.8851 43.7207 52.3976 43.6293 52.3128C43.4661 52.1637 43.0233 52.1289 42.7437 51.8395C42.5881 51.6785 42.4521 51.2509 42.2704 51.1649C42.1355 51.1007 41.9614 51.2498 41.8385 51.1758C41.6502 51.0626 41.635 50.622 41.1204 50.5719C40.659 50.5273 39.4383 51.3042 38.8834 51.4772C38.5983 51.5653 38.2371 51.5011 38.0293 51.6034C37.8879 51.673 37.8683 51.9037 37.7867 51.957C37.6572 52.0418 37.259 52.0342 37.036 52.1311C36.6845 52.2823 35.9534 52.538 35.7227 52.6566C35.4921 52.7752 35.4812 53.0004 35.343 53.0733C34.9731 53.2702 34.0167 53.2735 33.5521 53.4291C33.2954 53.515 33.13 53.7207 32.9254 53.7816C32.5359 53.8969 30.9964 54.3321 30.7222 54.2538C30.6363 54.2288 30.4567 54.0732 30.4274 53.9981C30.349 53.799 30.5394 53.836 30.645 53.7881C31.7645 53.2778 34.1168 52.7937 34.9611 52.2388C35.1537 52.1126 35.1591 51.9222 35.3202 51.8286C35.7956 51.5512 36.6203 51.4326 36.9903 51.2128C37.2046 51.0855 37.2318 50.8287 37.4081 50.7536C37.6877 50.634 38.0979 50.6873 38.3894 50.4675C38.8888 50.0889 38.6995 50.239 39.2327 49.9768C39.7179 49.7385 40.9909 48.8159 41.512 49.0988C41.6665 49.1825 41.7025 49.4437 41.8439 49.5329C41.9766 49.6178 42.1834 49.5873 42.3346 49.695C42.5696 49.8615 42.5217 50.2629 42.772 50.4533C43.0222 50.6437 43.8741 50.8048 44.0156 50.9484C44.1831 51.1192 44.0689 51.4097 44.1679 51.5577C44.2582 51.6937 44.5552 51.6273 44.6673 51.7111C44.8087 51.8155 44.7369 52.0788 44.8272 52.2072C44.9023 52.3139 45.1047 52.2845 45.171 52.3487H45.17Z" fill="#31A239"/>
<path d="M9.85747 54.6305C10.3177 55.0984 10.5451 55.5739 11.1283 56.0286C11.2469 56.1211 11.2915 56.3213 11.3785 56.3431C11.8605 56.466 11.9856 56.0656 12.2892 55.8589C12.5927 55.6522 13.2009 55.4302 13.1552 55.0429C13.6775 54.9265 13.8625 55.3323 14.1823 55.5793C15.5783 56.6553 16.885 57.9392 18.4245 58.9478L19.1263 59.7127C18.1449 59.9042 18.0176 59.5418 17.38 59.123C16.5629 58.5855 15.6751 58.0382 14.8536 57.5138C14.7176 57.4267 14.6937 57.2701 14.586 57.2146C14.3292 57.0808 13.7145 56.9665 13.4175 56.9839C13.1759 56.9991 12.0933 57.4159 11.7887 57.5345C9.73235 58.3298 7.62922 59.6082 5.42925 59.8693C5.21709 59.8944 5.02125 60.1076 4.67417 59.9303C4.70355 59.7431 4.89068 59.7409 5.02451 59.6844C6.44872 59.0773 7.91428 58.6127 9.31347 57.8859C9.54195 57.7662 11.0619 56.9306 11.0858 56.8305C11.1511 56.5596 10.6996 56.5074 10.581 56.4127C10.1273 56.0493 9.75302 55.9644 9.46144 55.7392C9.29062 55.6076 9.31347 55.3758 9.20902 55.2834C9.17638 55.254 8.48984 54.8384 8.44632 54.8394C7.9763 54.8481 6.89916 55.6 6.38344 55.8219C5.21709 56.3257 3.17706 57.0525 1.90626 57.1069C1.81487 57.1112 1.72239 57.1036 1.63208 57.1025C1.79855 56.6945 2.28924 56.7903 2.64067 56.6445C4.14539 56.0178 5.65447 55.1789 7.09392 54.4663C7.43011 54.2998 8.51269 53.486 8.80319 53.672C8.86847 53.7133 9.27974 54.2835 9.45056 54.4467C9.58221 54.5718 9.79002 54.5642 9.85856 54.6349L9.85747 54.6305Z" fill="#31A239"/>
<path d="M10.3862 49.4212C10.8225 49.7879 11.2163 50.3765 11.6341 50.7236C11.8245 50.8813 12.0737 50.8802 12.287 51.0543C12.5796 51.2937 12.7178 51.8497 12.9256 52.0488C13.7014 52.7897 15.2594 53.9517 16.2647 54.6872C16.3986 54.7851 16.5672 54.7993 16.5172 55.0321C16.0526 55.1268 15.7044 54.6698 15.4248 54.549C14.3063 54.067 13.7514 53.9811 12.7722 53.0682C12.6623 52.966 12.6645 52.7407 12.5775 52.6668C12.4697 52.5754 12.0563 52.5438 11.8463 52.3654C11.6363 52.1869 11.6624 51.9465 11.5569 51.8682C11.4514 51.7898 11.2033 51.8007 11.0259 51.6625C10.8257 51.5069 10.6691 51.063 10.458 50.8955C9.9586 50.4994 9.48749 50.5517 8.94348 50.7693C6.08092 51.9139 3.68075 53.5568 0.45479 53.8124C0.254596 53.8288 0.136002 53.8777 0 53.671L1.65052 53.2597C4.06482 52.0444 6.39862 50.9423 8.68018 49.6356C9.58324 49.1187 9.35475 48.5552 10.3851 49.4212H10.3862Z" fill="#31A239"/>
<path d="M26.1199 48.1424C26.3375 48.5286 27.1589 49.0346 27.4582 49.3022C27.9184 49.7146 28.3025 50.2978 28.791 50.7406C29.3491 51.2465 30.0248 51.8308 30.5383 52.3661C30.6504 52.4836 30.7918 52.5576 30.7527 52.7491C30.2565 52.8851 30.1597 52.4901 29.9551 52.353C28.7594 51.5522 27.6257 50.7623 26.4887 49.9235C26.1493 49.6732 26.2124 49.2489 25.4899 49.2641C24.8698 49.2772 24.8208 49.534 24.4433 49.7538C22.5893 50.8287 19.0119 52.5815 16.8489 53.0254C16.4964 53.0972 15.4378 53.4008 15.8316 52.8568C17.0371 52.489 18.1632 52.0255 19.273 51.4271C20.9018 50.548 22.7786 49.3479 24.2888 48.2882C24.4944 48.1446 25.5237 47.2241 25.6085 47.2089C25.9676 47.1458 25.9763 47.8845 26.1221 48.1424H26.1199Z" fill="#31A239"/>
<path d="M26.7684 52.9287C27.7901 53.6348 29.0696 54.1092 30.0532 54.8142C30.1478 54.8817 30.1718 55.0569 30.2893 55.1461C30.6722 55.4344 31.5448 55.1874 31.5133 56.0121C30.3709 56.2472 29.9182 55.6705 29.0903 55.2299C28.3515 54.836 27.5834 54.4922 26.8392 54.1103C25.5248 53.4368 25.7011 53.1006 24.0506 53.7077C23.0126 54.0896 22.0008 54.6967 21.002 55.1167C19.5963 55.7064 18.1905 56.3114 16.6271 56.3386C16.5716 56.0306 16.701 56.1601 16.8653 56.0938C17.8413 55.701 18.4114 55.4801 19.3547 54.9905C21.0749 54.0962 22.7036 53.1376 24.4205 52.228C24.7752 52.0398 25.2224 51.4262 25.6913 51.7765C25.8654 51.906 25.8502 52.1258 25.9796 52.2509C26.1015 52.3684 26.6542 52.8471 26.7695 52.9276L26.7684 52.9287Z" fill="#31A239"/>
<path d="M57.3036 46.9445C57.6768 47.1991 58.1773 47.3699 58.5374 47.5625C58.7387 47.6702 58.9378 48.1392 59.4416 47.9618C59.4035 48.1196 59.175 48.2458 59.0346 48.2697C58.9313 48.2871 57.7998 48.1838 57.6746 48.1522C57.1785 48.0282 56.4789 47.3286 56.0404 47.0686C55.021 46.4658 54.6227 46.505 53.6033 47.0609C53.4912 47.1219 53.4738 47.2394 53.3726 47.2949C51.6013 48.2773 49.6984 49.1391 47.7051 49.4829C47.6627 49.2685 47.8042 49.2228 47.9543 49.1347C48.4526 48.842 49.2436 48.6418 49.7952 48.3677C51.1977 47.6681 52.562 46.7824 53.8231 45.8728C54.0776 45.689 54.7348 44.9915 54.8654 44.9633C55.2712 44.8762 55.2821 45.4028 55.467 45.5725C55.8087 45.8848 56.8869 46.6616 57.3014 46.9434L57.3036 46.9445Z" fill="#31A239"/>
<path d="M28.5549 57.7794C28.6386 57.861 28.6332 58.0775 28.7442 58.1896C28.8791 58.3256 30.0727 58.8674 29.7745 59.1677C29.2936 59.27 28.9596 58.7053 28.6843 58.5736C28.1773 58.3321 27.4364 58.0982 26.9196 57.8381C26.5475 57.651 26.4974 57.2811 25.9186 57.3104C25.169 57.3485 23.501 58.5432 22.7101 58.8946C22.0203 59.2014 21.1868 59.4647 20.4307 59.4941L24.2746 56.9753C24.712 56.5292 25.2756 56.1756 25.7968 55.7785C25.9121 55.6904 25.9752 55.4728 26.0372 55.4619C26.4691 55.3868 26.9947 56.5749 27.2732 56.8328C27.5931 57.1287 27.6975 57.2408 27.9848 57.5346C28.148 57.701 28.4385 57.6651 28.556 57.7794H28.5549Z" fill="#31A239"/>
<path d="M43.2497 55.6858L42.3325 55.8044C42.227 55.788 42.2977 55.5324 42.1639 55.4159C42.1084 55.367 40.9747 54.8491 40.8245 54.7958C39.2719 54.242 39.2719 54.9122 38.0718 55.4529C37.4473 55.7347 36.0906 56.1493 35.4269 56.1873C35.3007 56.195 35.1462 56.232 35.1005 56.0655C34.959 55.5519 36.0514 55.5813 36.3299 55.4442C36.9838 55.1222 37.443 54.6532 37.9761 54.2681C38.2666 54.0581 38.6648 54.1027 38.9466 53.933C39.1468 53.8133 39.1816 53.587 39.2589 53.5391C39.4449 53.4227 39.8507 53.4466 40.0596 53.0909C40.3023 53.043 40.7581 53.5881 40.9997 53.7513C41.6122 54.1636 42.5882 54.5423 43.0343 55.1962C43.1355 55.3441 43.1757 55.5258 43.2508 55.6858H43.2497Z" fill="#31A239"/>
<path d="M168.197 19.8135H171.557V35.7335H168.197V34.9335H162.89V32.4535H168.197V19.8135ZM159.743 27.9202C157.948 27.9202 156.508 27.5646 155.423 26.8535C154.339 26.1424 153.797 25.1202 153.797 23.7868C153.797 22.4713 154.339 21.458 155.423 20.7468C156.508 20.0357 157.948 19.6802 159.743 19.6802C161.521 19.6802 162.943 20.0357 164.01 20.7468C165.094 21.458 165.637 22.4713 165.637 23.7868C165.637 25.1024 165.094 26.1246 164.01 26.8535C162.943 27.5646 161.521 27.9202 159.743 27.9202ZM159.743 22.2935C158.925 22.2935 158.277 22.4268 157.797 22.6935C157.317 22.9424 157.077 23.3068 157.077 23.7868C157.077 24.2846 157.317 24.658 157.797 24.9068C158.277 25.1557 158.925 25.2802 159.743 25.2802C160.543 25.2802 161.174 25.1557 161.637 24.9068C162.117 24.658 162.357 24.2846 162.357 23.7868C162.357 23.3068 162.117 22.9424 161.637 22.6935C161.174 22.4268 160.543 22.2935 159.743 22.2935ZM152.783 31.6002V28.8268H161.477C164.001 28.8268 165.814 28.5691 166.917 28.0535V30.8268C165.797 31.3424 163.832 31.6002 161.023 31.6002V34.8802H157.663V31.6002H152.783ZM171.903 40.2135H154.383V33.7868H157.77V37.2268H171.903V40.2135Z" fill="#31A239"/>
<path d="M133.839 22.7736V19.8936H151.013V26.7736H147.626V22.7736H133.839ZM152.293 30.7469H132.666V27.8936H139.359V24.5602H142.746V27.8936H152.293V30.7469ZM142.479 32.0536C145.182 32.0536 147.315 32.3913 148.879 33.0669C150.462 33.7424 151.253 34.8091 151.253 36.2669C151.253 37.7069 150.462 38.7647 148.879 39.4402C147.315 40.1158 145.182 40.4536 142.479 40.4536C139.777 40.4536 137.635 40.1158 136.053 39.4402C134.47 38.7647 133.679 37.7069 133.679 36.2669C133.679 34.8091 134.47 33.7424 136.053 33.0669C137.635 32.3913 139.777 32.0536 142.479 32.0536ZM142.479 37.7602C144.026 37.7602 145.279 37.6358 146.239 37.3869C147.199 37.138 147.679 36.7647 147.679 36.2669C147.679 35.7869 147.19 35.4224 146.213 35.1736C145.253 34.9069 144.008 34.7736 142.479 34.7736C140.933 34.7736 139.67 34.9069 138.693 35.1736C137.733 35.4224 137.253 35.7869 137.253 36.2669C137.253 36.7647 137.733 37.138 138.693 37.3869C139.653 37.6358 140.915 37.7602 142.479 37.7602Z" fill="#31A239"/>
<path d="M123.609 40.2935V19.8135H126.942V40.2935H123.609ZM115.022 20.0268C116.195 20.0268 117.244 20.3024 118.169 20.8535C119.111 21.4046 119.84 22.1779 120.355 23.1735C120.889 24.169 121.155 25.3157 121.155 26.6135C121.155 27.9113 120.889 29.0668 120.355 30.0801C119.84 31.0757 119.111 31.849 118.169 32.4001C117.244 32.9513 116.195 33.2268 115.022 33.2268C113.831 33.2268 112.764 32.9513 111.822 32.4001C110.88 31.849 110.142 31.0757 109.609 30.0801C109.093 29.0668 108.835 27.9113 108.835 26.6135C108.835 25.3157 109.093 24.169 109.609 23.1735C110.142 22.1779 110.88 21.4046 111.822 20.8535C112.764 20.3024 113.831 20.0268 115.022 20.0268ZM115.022 23.2001C114.133 23.2001 113.422 23.529 112.889 24.1868C112.373 24.8268 112.115 25.6357 112.115 26.6135C112.115 27.6268 112.373 28.4535 112.889 29.0935C113.422 29.7157 114.133 30.0268 115.022 30.0268C115.893 30.0268 116.595 29.7068 117.129 29.0668C117.662 28.4268 117.929 27.609 117.929 26.6135C117.929 25.6357 117.662 24.8268 117.129 24.1868C116.595 23.529 115.893 23.2001 115.022 23.2001ZM122.329 38.3735C121.724 38.6579 120.924 38.8801 119.929 39.0401C118.933 39.1824 117.867 39.2535 116.729 39.2535H108.275V35.9468H116.862C117.947 35.9468 118.969 35.8757 119.929 35.7335C120.907 35.5913 121.707 35.3779 122.329 35.0935V38.3735Z" fill="#31A239"/>
<path d="M97.9715 27.2802C95.3049 27.2802 93.1715 26.9691 91.5715 26.3469C89.9893 25.7247 89.1982 24.7469 89.1982 23.4135C89.1982 22.0802 89.9893 21.1024 91.5715 20.4802C93.1538 19.858 95.2871 19.5469 97.9715 19.5469C100.656 19.5469 102.78 19.858 104.345 20.4802C105.927 21.1024 106.718 22.0802 106.718 23.4135C106.718 24.7469 105.927 25.7247 104.345 26.3469C102.763 26.9691 100.638 27.2802 97.9715 27.2802ZM97.9715 22.1069C96.3893 22.1069 95.1271 22.2224 94.1849 22.4535C93.2426 22.6669 92.7715 22.9869 92.7715 23.4135C92.7715 23.8402 93.2426 24.1691 94.1849 24.4002C95.1271 24.6135 96.3893 24.7202 97.9715 24.7202C99.5538 24.7202 100.807 24.6135 101.732 24.4002C102.674 24.1691 103.145 23.8402 103.145 23.4135C103.145 22.9869 102.674 22.6669 101.732 22.4535C100.807 22.2224 99.5538 22.1069 97.9715 22.1069ZM99.6515 31.7335H106.585V36.9335H92.6915V37.9202H106.825V40.2135H89.3849V34.9869H103.278V34.0002H89.3315V31.7335H96.2915V30.5335H88.1582V27.9469H107.785V30.5335H99.6515V31.7335Z" fill="#31A239"/>
<path d="M86.7876 40.2935H83.4276V29.9735H79.0542V26.6668H83.4276V19.8135H86.7876V40.2935ZM76.6809 20.3468C76.6809 23.049 76.5031 25.5468 76.1476 27.8401L81.9342 37.3335L79.0276 39.2535L75.0009 32.2668C74.2542 34.4713 73.2853 36.1779 72.0942 37.3868C70.9209 38.5779 69.5876 39.2001 68.0942 39.2535V35.5735C69.1431 35.4313 70.0498 34.6935 70.8142 33.3601C71.5965 32.009 72.2009 30.2046 72.6276 27.9468C73.0542 25.6713 73.2676 23.1024 73.2676 20.2401L76.6809 20.3468Z" fill="#31A239"/>
</svg>
