<svg width="50" height="62" viewBox="0 0 50 62" fill="none" xmlns="http://www.w3.org/2000/svg">
<path d="M25.0003 57.6054C36.0184 57.6054 44.9504 48.5806 44.9504 37.4479C44.9504 26.3151 36.0184 17.2903 25.0003 17.2903C13.9822 17.2903 5.05029 26.3151 5.05029 37.4479C5.05029 48.5806 13.9822 57.6054 25.0003 57.6054Z" fill="#1BCC9A"/>
<path d="M35.2427 47.7961C40.899 42.0809 40.899 32.8147 35.2427 27.0994C29.5863 21.3842 20.4155 21.3842 14.7591 27.0994C9.10273 32.8147 9.10273 42.0809 14.7591 47.7961C20.4155 53.5113 29.5863 53.5113 35.2427 47.7961Z" fill="white"/>
<path d="M24.6604 28.0442V37.2055L29.7812 41.2579" stroke="#049B73" stroke-width="3" stroke-miterlimit="10"/>
<path d="M14.7971 55.5596L13.043 59.0133" stroke="#1BCC9A" stroke-width="3" stroke-miterlimit="10" stroke-linecap="square"/>
<path d="M35.2029 55.5596L36.957 59.0133" stroke="#1BCC9A" stroke-width="3" stroke-miterlimit="10" stroke-linecap="square"/>
<path d="M18.4496 16.962L4.25661 31.3027L2.94034 29.9727C-0.980114 26.0115 -0.980114 19.5907 2.94034 15.6321C6.8608 11.6708 13.2154 11.6708 17.1333 15.6321L18.4496 16.962Z" fill="#049B73"/>
<path d="M31.5503 16.962L45.7433 31.3027L47.0595 29.9727C50.98 26.0115 50.98 19.5907 47.0595 15.6321C43.1391 11.6708 36.7844 11.6708 32.8666 15.6321L31.5503 16.962Z" fill="#049B73"/>
<path d="M13.9241 6.18218C16.9121 3.1631 20.884 1.5 25.111 1.5C29.338 1.5 33.31 3.1631 36.298 6.18218" stroke="#6BE2BA" stroke-width="3" stroke-miterlimit="10"/>
<path d="M20.1987 12.5249C22.9111 9.78433 27.3081 9.78433 30.0205 12.5249" stroke="#6BE2BA" stroke-width="3" stroke-miterlimit="10"/>
</svg>
