<svg width="50" height="48" viewBox="0 0 50 48" fill="none" xmlns="http://www.w3.org/2000/svg">
<g clip-path="url(#clip0_166_10550)">
<path d="M50 46.4053L45.2219 36.0133C47.2905 32.48 48.4809 28.3787 48.4809 24.0027C48.4809 10.744 37.6293 0 24.2405 0C10.8516 0 0 10.744 0 24C0 37.256 10.8516 48 24.2405 48C29.1451 48 33.7077 46.552 37.5242 44.072L50 46.4053Z" fill="#BA6BFF"/>
<path d="M18.6544 15.8748H15.2473V20.7014H18.6544V15.8748Z" fill="white"/>
<path d="M33.9259 15.8748H30.5188V20.7014H33.9259V15.8748Z" fill="white"/>
<path d="M15.9045 25.5947H33.2688V29.3627C33.2688 32.9707 30.3115 35.8987 26.6673 35.8987H22.506C18.8619 35.8987 15.9045 32.9707 15.9045 29.3627V25.5947Z" fill="#E9CFFF"/>
</g>
<defs>
<clipPath id="clip0_166_10550">
<rect width="50" height="48" fill="white"/>
</clipPath>
</defs>
</svg>
