<svg width="48" height="40" viewBox="0 0 48 40" fill="none" xmlns="http://www.w3.org/2000/svg">
<path d="M36.4629 7.79591L33.7598 0H14.5133L11.8074 7.79591H0V39.7851H48V7.79591H36.4629Z" fill="#06699A"/>
<path d="M24.0031 34.3211C18.0399 34.3211 13.1904 29.4716 13.1904 23.5084C13.1904 17.5453 18.0399 12.6958 24.0031 12.6958C29.9662 12.6958 34.8157 17.5453 34.8157 23.5084C34.8157 29.4716 29.9662 34.3211 24.0031 34.3211ZM24.0031 18.1021C21.0215 18.1021 18.5967 20.5269 18.5967 23.5084C18.5967 26.49 21.0215 28.9148 24.0031 28.9148C26.9847 28.9148 29.4094 26.49 29.4094 23.5084C29.4094 20.5269 26.9847 18.1021 24.0031 18.1021Z" fill="#58B4F6"/>
<path d="M10.1999 12.6877H4.65576V17.0128H10.1999V12.6877Z" fill="white"/>
</svg>
