<svg width="39" height="22" viewBox="0 0 39 22" fill="none" xmlns="http://www.w3.org/2000/svg">
<path d="M0 3.07036V0H12.4083V8.85582C12.4083 10.3614 12.1207 11.7993 11.5456 13.1695C10.9704 14.5398 10.1415 15.7493 9.05882 16.7982C7.97616 17.8301 6.66513 18.6505 5.12572 19.2595C3.60323 19.8685 1.89466 20.1646 0 20.1476V17.0519C1.21799 16.9842 2.36832 16.7643 3.45098 16.3922C4.53364 16.02 5.47251 15.4956 6.26759 14.8189C7.06267 14.1423 7.68858 13.3218 8.14533 12.3576C8.61899 11.3764 8.85582 10.243 8.85582 8.95732V3.07036H0ZM17.7624 0H21.2895V6.92734H23.5479V10.0231H21.2895V22H17.7624V0Z" fill="white"/>
<path d="M0 3.07036V0H12.4083V8.85582C12.4083 10.3614 12.1207 11.7993 11.5456 13.1695C10.9704 14.5398 10.1415 15.7493 9.05882 16.7982C7.97616 17.8301 6.66513 18.6505 5.12572 19.2595C3.60323 19.8685 1.89466 20.1646 0 20.1476V17.0519C1.21799 16.9842 2.36832 16.7643 3.45098 16.3922C4.53364 16.02 5.47251 15.4956 6.26759 14.8189C7.06267 14.1423 7.68858 13.3218 8.14533 12.3576C8.61899 11.3764 8.85582 10.243 8.85582 8.95732V3.07036H0ZM17.7624 0H21.2895V6.92734H23.5479V10.0231H21.2895V22H17.7624V0Z" fill="white"/>
<path d="M25.7671 11.3747V9.69995H32.5353V14.5304C32.5353 15.3516 32.3784 16.1359 32.0647 16.8833C31.7509 17.6307 31.2988 18.2905 30.7083 18.8626C30.1177 19.4254 29.4026 19.873 28.5629 20.2051C27.7325 20.5373 26.8005 20.6988 25.7671 20.6896V19.001C26.4314 18.9641 27.0589 18.8441 27.6494 18.6411C28.24 18.4381 28.7521 18.1521 29.1858 17.783C29.6195 17.4139 29.9609 16.9664 30.21 16.4404C30.4684 15.9053 30.5975 15.287 30.5975 14.5858V11.3747H25.7671ZM35.4557 9.69995H37.3795V13.4785H38.6114V15.1671H37.3795V21.7H35.4557V9.69995Z" fill="white"/>
<path d="M25.7671 11.3747V9.69995H32.5353V14.5304C32.5353 15.3516 32.3784 16.1359 32.0647 16.8833C31.7509 17.6307 31.2988 18.2905 30.7083 18.8626C30.1177 19.4254 29.4026 19.873 28.5629 20.2051C27.7325 20.5373 26.8005 20.6988 25.7671 20.6896V19.001C26.4314 18.9641 27.0589 18.8441 27.6494 18.6411C28.24 18.4381 28.7521 18.1521 29.1858 17.783C29.6195 17.4139 29.9609 16.9664 30.21 16.4404C30.4684 15.9053 30.5975 15.287 30.5975 14.5858V11.3747H25.7671ZM35.4557 9.69995H37.3795V13.4785H38.6114V15.1671H37.3795V21.7H35.4557V9.69995Z" fill="white"/>
</svg>
