<svg width="43" height="48" viewBox="0 0 43 48" fill="none" xmlns="http://www.w3.org/2000/svg">
<g clip-path="url(#clip0_64_8306)">
<path d="M29.5185 35.4765L25.2043 32.5174L35.7284 17.1538L30.574 13.6184L33.5293 9.30176L42.9999 15.7962L29.5185 35.4765Z" fill="#CE2013"/>
<path d="M37.277 8.45997L24.9387 0.000488281L6.37416 27.1089L18.7125 35.5683L37.277 8.45997Z" fill="#FFD3D2"/>
<path d="M32.6284 15.2483L20.29 6.78882L6.3756 27.107L18.7139 35.5665L32.6284 15.2483Z" fill="#FF6B57"/>
<path d="M18.7117 35.5668L6.37389 27.1057L6.10131 27.5056C3.72187 30.9794 2.73812 35.3802 3.17876 40.5725L3.51487 44.5179L7.31254 43.4065C12.3112 41.9444 16.0597 39.4384 18.4391 35.9646L18.7117 35.5647V35.5668Z" fill="#FFD3D2"/>
<path d="M3.23617 40.3573L0.00170898 45.0803L4.25537 47.9967L7.48983 43.2737L3.23617 40.3573Z" fill="#CE2013"/>
</g>
<defs>
<clipPath id="clip0_64_8306">
<rect width="43" height="48" fill="white"/>
</clipPath>
</defs>
</svg>
