<svg width="42" height="48" viewBox="0 0 42 48" fill="none" xmlns="http://www.w3.org/2000/svg">
<path d="M41.4727 22.3397C42.4874 26.498 39.5655 30.5522 35.3005 30.9032C31.9438 31.1796 28.8249 28.9305 28.0254 25.66C27.0106 21.5016 29.9325 17.4475 34.1975 17.0964C37.5542 16.8201 40.6731 19.0691 41.4727 22.3397Z" fill="#FF5825"/>
<path d="M3.06002 15.065H10.8358V32.9396H3.06002C1.37259 32.9396 0 31.5693 0 29.8797V18.1226C0 16.4353 1.37033 15.0627 3.06002 15.0627V15.065Z" fill="#FF6536"/>
<path d="M7.42722 19.5737H3.59937V23.4014H7.42722V19.5737Z" fill="white"/>
<path d="M10.8362 32.9366L34.7501 45.0199V2.97656L10.8362 15.0621V32.9366Z" fill="#FF9B7D"/>
<path d="M31.7464 48C30.0861 48 28.7407 46.6547 28.7407 44.9945V3.00552C28.7407 1.34535 30.0861 0 31.7464 0C33.4066 0 34.752 1.34535 34.752 3.00552V44.9945C34.752 46.6547 33.4066 48 31.7464 48Z" fill="#FF6536"/>
</svg>
