<svg width="49" height="48" viewBox="0 0 49 48" fill="none" xmlns="http://www.w3.org/2000/svg">
<path d="M48.8003 48.0001H0L8.27653 25.4492H40.5238L48.8003 48.0001Z" fill="#55CA5D"/>
<path d="M34.8797 39.4587L43.7125 34.1393L42.168 29.9305L30.7 36.8391L12.5218 25.4495H8.27622L7.51981 27.5077L15.0497 32.2269L3.15951 39.3882L0.739014 45.9834L19.2319 34.8465L26.4738 39.3834L12.1656 48.0003H20.6959L30.6536 42.003L40.2233 48.0003H48.5121L34.8797 39.4587Z" fill="#A7FFAD"/>
<path d="M23.9434 0C29.9872 0 34.8865 4.87936 34.8867 10.8984C34.8867 11.5983 34.8134 12.2819 34.6865 12.9453C34.506 13.8904 34.2013 14.7917 33.7939 15.6348C33.7891 15.6421 33.7817 15.6569 33.7695 15.6836C33.7622 15.6957 33.7573 15.7056 33.75 15.7178C33.6525 15.9145 33.6304 15.9556 33.7305 15.7539C33.207 16.7868 23.9816 31.79 23.9414 31.8555C23.9414 31.8555 14.7991 17.0248 14.166 15.7764C14.1637 15.7717 14.1616 15.7667 14.1592 15.7617C14.1373 15.7205 14.1152 15.6838 14.0957 15.6426C14.0933 15.6378 14.0931 15.6374 14.0908 15.6328V15.6299C14.0714 15.5935 14.066 15.5817 14.0781 15.6035C13.678 14.7701 13.3783 13.8783 13.2002 12.9453C13.0733 12.2819 13 11.5983 13 10.8984C13.0002 4.87939 17.8996 5.66219e-05 23.9434 0ZM23.9434 5.40137C21.0825 5.40137 18.7628 7.71141 18.7627 10.5605C18.7627 13.4098 21.0824 15.7197 23.9434 15.7197C26.8042 15.7197 29.123 13.4097 29.123 10.5605C29.1229 7.71145 26.8041 5.40144 23.9434 5.40137Z" fill="#31A239"/>
</svg>
