<svg width="39" height="22" viewBox="0 0 39 22" fill="none" xmlns="http://www.w3.org/2000/svg">
<path d="M0 22L10.3478 0H14.5217L24.8406 22H20.6956L18.2319 16.8116H6.60869L4.17391 22H0ZM8.17391 13.3913H16.6956L12.4348 4.34783L8.17391 13.3913Z" fill="white"/>
<path d="M26.2661 19.1068V17.1885C26.2661 15.3896 27.3974 14.4902 29.6601 14.4902H35.689V12.6773C35.689 12.2276 35.408 12.0027 34.8458 12.0027H27.2358V9.55737H35.2463C37.509 9.55737 38.6403 10.4638 38.6403 12.2767V21.8261H29.6601C27.3974 21.8261 26.2661 20.9197 26.2661 19.1068ZM29.2174 18.7063C29.2174 19.156 29.4984 19.3808 30.0606 19.3808H35.689V16.9355H30.0606C29.4984 16.9355 29.2174 17.1604 29.2174 17.6101V18.7063Z" fill="white"/>
</svg>
