<svg width="53" height="48" viewBox="0 0 53 48" fill="none" xmlns="http://www.w3.org/2000/svg">
<path d="M8.60829 17.397H0V21.2464H8.60829V17.397Z" fill="#049B73"/>
<path d="M52.2103 17.397H43.6021V21.2464H52.2103V17.397Z" fill="#049B73"/>
<path d="M12.5612 3.01217H39.6491C42.885 3.01217 45.5123 5.63941 45.5123 8.87533V40.4334H6.698V8.87293C6.698 5.637 9.32523 3.00977 12.5612 3.00977V3.01217Z" fill="#1BCC9A"/>
<path d="M39.6491 3.01221H12.5612C9.32283 3.01221 6.698 5.63704 6.698 8.87537V21.7228H45.5123V8.87537C45.5123 5.63704 42.8875 3.01221 39.6491 3.01221Z" fill="#6BE2BA"/>
<path d="M39.6492 3.01221H26.104V21.7228H45.5099V8.87537C45.5099 5.63704 42.8851 3.01221 39.6468 3.01221H39.6492Z" fill="#C8FCE9"/>
<path d="M15.2365 40.4312H6.698V48.0001H15.2365V40.4312Z" fill="#049B73"/>
<path d="M45.5122 40.4312H36.9736V48.0001H45.5122V40.4312Z" fill="#049B73"/>
<path d="M35.4725 0H16.7354V8.05734H35.4725V0Z" fill="#1BCC9A"/>
<path d="M14.5051 35.2631C16.4982 35.2631 18.1139 33.6474 18.1139 31.6543C18.1139 29.6611 16.4982 28.0454 14.5051 28.0454C12.512 28.0454 10.8962 29.6611 10.8962 31.6543C10.8962 33.6474 12.512 35.2631 14.5051 35.2631Z" fill="white"/>
<path d="M37.7075 35.2631C39.7006 35.2631 41.3163 33.6474 41.3163 31.6543C41.3163 29.6611 39.7006 28.0454 37.7075 28.0454C35.7144 28.0454 34.0986 29.6611 34.0986 31.6543C34.0986 33.6474 35.7144 35.2631 37.7075 35.2631Z" fill="white"/>
</svg>
