<svg width="36" height="36" viewBox="0 0 36 36" fill="none" xmlns="http://www.w3.org/2000/svg">
<rect width="36" height="36" rx="18" fill="#31A239"/>
<path d="M18.0014 26.9997C21.5196 26.9997 24.3714 24.1716 24.3714 20.6826V15.3173C24.3714 11.8284 21.5196 9.00027 18.0014 9.00027C14.4831 9.00027 11.6313 11.8284 11.6313 15.3173V21.4305" stroke="white" stroke-width="1.5" stroke-miterlimit="10" stroke-linecap="square"/>
<path d="M10.7751 16.2685C11.7842 16.2685 12.5915 17.078 12.5916 18.0634V21.5888C12.5914 22.5742 11.7842 23.3837 10.7751 23.3837C9.76612 23.3837 8.95885 22.5742 8.95874 21.5888V18.0634C8.95884 17.078 9.76612 16.2685 10.7751 16.2685Z" fill="white" stroke="white" stroke-width="1.5"/>
<path d="M25.2246 16.2685C26.2337 16.2685 27.0409 17.078 27.041 18.0634V21.5888C27.0409 22.5743 26.2336 23.3838 25.2246 23.3838C24.2156 23.3837 23.4083 22.5743 23.4082 21.5888V18.0634C23.4083 17.078 24.2156 16.2685 25.2246 16.2685Z" fill="white" stroke="white" stroke-width="1.5"/>
<mask id="path-5-inside-1_76_4117" fill="white">
<path d="M18.1238 22.2458C16.7989 22.2458 15.8028 21.6746 15.7408 21.6386L15.2339 21.3415L15.8338 20.337L16.339 20.6332C16.4196 20.6797 18.0883 21.6122 19.7553 20.6332L20.2622 20.3361L20.8622 21.3406L20.3552 21.6377C19.5789 22.0929 18.8079 22.245 18.1238 22.245V22.2458Z"/>
</mask>
<path d="M18.1238 22.2458C16.7989 22.2458 15.8028 21.6746 15.7408 21.6386L15.2339 21.3415L15.8338 20.337L16.339 20.6332C16.4196 20.6797 18.0883 21.6122 19.7553 20.6332L20.2622 20.3361L20.8622 21.3406L20.3552 21.6377C19.5789 22.0929 18.8079 22.245 18.1238 22.245V22.2458Z" fill="white"/>
<path d="M18.1238 22.2458V23.7458H19.6238V22.2458H18.1238ZM15.7408 21.6386L14.9824 22.9327L14.9874 22.9356L15.7408 21.6386ZM15.2339 21.3415L13.9461 20.5724L13.1705 21.8709L14.4755 22.6357L15.2339 21.3415ZM15.8338 20.337L16.5925 19.043L15.309 18.2905L14.5461 19.5678L15.8338 20.337ZM16.339 20.6332L15.5803 21.9272L15.5888 21.9321L16.339 20.6332ZM19.7553 20.6332L18.9969 19.339L18.9956 19.3397L19.7553 20.6332ZM20.2622 20.3361L21.55 19.567L20.7872 18.2899L19.5038 19.042L20.2622 20.3361ZM20.8622 21.3406L21.6205 22.6348L22.9255 21.8701L22.1499 20.5715L20.8622 21.3406ZM20.3552 21.6377L19.5969 20.3435L19.5965 20.3437L20.3552 21.6377ZM18.1238 22.245V20.745H16.6238V22.245H18.1238ZM18.1238 22.2458V20.7458C17.1933 20.7458 16.4745 20.3301 16.4942 20.3415L15.7408 21.6386L14.9874 22.9356C15.1311 23.0191 16.4045 23.7458 18.1238 23.7458V22.2458ZM15.7408 21.6386L16.4992 20.3444L15.9923 20.0473L15.2339 21.3415L14.4755 22.6357L14.9824 22.9327L15.7408 21.6386ZM15.2339 21.3415L16.5217 22.1107L17.1216 21.1062L15.8338 20.337L14.5461 19.5678L13.9461 20.5724L15.2339 21.3415ZM15.8338 20.337L15.0752 21.631L15.5803 21.9272L16.339 20.6332L17.0977 19.3392L16.5925 19.043L15.8338 20.337ZM16.339 20.6332L15.5888 21.9321C15.7142 22.0045 16.3177 22.3347 17.1817 22.4932C18.0614 22.6545 19.2865 22.648 20.5149 21.9266L19.7553 20.6332L18.9956 19.3397C18.5571 19.5973 18.1144 19.6142 17.7228 19.5424C17.3156 19.4677 17.0444 19.3084 17.0892 19.3343L16.339 20.6332ZM19.7553 20.6332L20.5137 21.9273L21.0206 21.6303L20.2622 20.3361L19.5038 19.042L18.9969 19.339L19.7553 20.6332ZM20.2622 20.3361L18.9744 21.1053L19.5744 22.1098L20.8622 21.3406L22.1499 20.5715L21.55 19.567L20.2622 20.3361ZM20.8622 21.3406L20.1038 20.0465L19.5969 20.3435L20.3552 21.6377L21.1136 22.9318L21.6205 22.6348L20.8622 21.3406ZM20.3552 21.6377L19.5965 20.3437C19.0805 20.6463 18.5786 20.745 18.1238 20.745V22.245V23.745C19.0373 23.745 20.0774 23.5395 21.114 22.9316L20.3552 21.6377ZM18.1238 22.245H16.6238V22.2458H18.1238H19.6238V22.245H18.1238Z" fill="white" mask="url(#path-5-inside-1_76_4117)"/>
</svg>
