<svg width="189" height="60" viewBox="0 0 189 60" fill="none" xmlns="http://www.w3.org/2000/svg">
<path d="M29.9226 2.33716C29.9466 2.37198 30.0554 2.38503 30.0989 2.45249C30.3785 2.88987 30.2012 3.02152 30.867 3.20539V5.90258C31.2043 6.64461 31.3403 7.43451 31.5035 8.20374C31.571 8.52144 31.5873 9.06218 31.695 9.31133C31.7962 9.54635 32.1259 9.48977 32.2249 9.65841C32.3282 9.83685 32.2369 10.0621 32.2793 10.2394C32.3 10.3243 32.4708 10.309 32.4914 10.3896C32.6024 10.84 32.3348 11.1436 32.3108 11.471C32.2913 11.7343 32.4632 12.8746 32.5752 13.1172C32.77 13.5383 33.9363 13.3 34.4477 13.5274C34.6675 13.6253 35.1147 14.2596 35.4106 14.413C35.5455 15.0332 35.3323 15.7807 35.341 16.3541C35.3616 17.5824 35.65 18.4702 35.6402 19.7225C35.6347 20.4026 35.6815 21.8823 36.6683 21.7376C36.9262 21.6995 37.1144 21.4536 37.4125 21.5384C37.7618 21.6385 38.3428 22.3142 38.7726 22.4154L38.79 23.7526C39.05 23.9963 40.0716 23.9702 40.397 23.8331C41.2913 23.4577 40.2479 21.7245 40.9344 21.1848C41.4937 20.7453 41.201 20.9487 41.4806 20.2394C42.1378 18.5747 42.4664 16.9536 43.0985 15.3324C43.302 14.8112 43.6001 14.7068 43.9047 14.2814C44.2997 14.2531 44.6043 14.3739 45.0308 14.3282C45.4573 14.2825 46.0536 13.8843 46.4616 13.9506C46.591 13.9713 47.5833 14.8809 47.6888 15.0648C47.9652 15.5424 47.8912 16.0581 48.21 16.6152C48.4341 17.008 48.4624 17.1755 48.63 17.4954C48.6746 17.5813 49.2795 18.1145 49.3317 18.3342C49.6581 19.7193 49.1326 22.4774 49.3405 24.0724C49.619 26.2006 50.5873 28.7694 51.1019 31.0129C51.1738 31.3251 51.5339 32.2043 51.5676 32.4523C51.5959 32.6601 51.4305 33.0496 51.5045 33.3097L52.1464 33.6676C52.1867 33.8657 52.1312 34.0887 52.1867 34.2802C52.4848 35.3018 52.6001 36.132 53.006 37.1591C53.2758 37.8402 53.2116 37.9609 53.3781 38.5278C53.4303 38.7073 53.661 38.7846 53.7328 38.9336C53.8318 39.1404 53.7795 39.42 53.8927 39.6169C53.9874 39.7812 54.5009 39.9052 54.6064 40.1261C54.712 40.347 54.8447 41.5655 54.8915 41.6352C54.9383 41.7048 55.2255 41.6863 55.2908 41.7799C55.3463 41.8582 55.3082 42.0693 55.3648 42.1901C55.5737 42.634 55.7108 42.8788 55.7467 43.389C55.6194 43.5153 55.0406 42.733 54.5488 42.8886C54.2789 42.9745 53.5979 43.6077 53.2812 43.8047C51.6536 44.8133 49.7485 45.8034 47.9184 46.3778C47.5779 46.4845 46.6422 46.8032 46.3528 46.7652C45.8381 46.6966 43.29 42.8396 42.8711 42.845C38.8683 45.1995 34.7034 47.4539 30.1022 48.395C29.9216 45.3214 29.9292 42.2151 30.5254 39.1915C30.8148 38.802 33.8058 38.5942 34.4847 38.4778C37.7259 37.9207 41.8984 37.0002 44.6478 35.1615C44.9938 34.9297 46.0492 34.1039 45.1494 33.9288C44.4933 33.8015 44.3106 34.0876 43.8177 34.2214C42.5349 34.5707 41.2184 34.7796 39.8823 34.7948L41.695 34.0539C42.4272 33.6709 43.9678 32.374 43.7959 31.4775C43.735 31.1576 43.1877 30.9694 42.8842 30.99C41.7668 31.4416 40.5798 31.7234 39.4504 32.1314C35.0309 33.7297 31.1608 36.1037 26.3529 36.5346C25.6903 36.5933 24.2465 36.7445 23.6644 36.6151C23.4207 36.5607 23.1487 36.3115 23.1563 36.0417C23.363 34.2541 23.7569 32.3892 23.9081 30.6049C23.9875 29.6714 24.1018 28.1286 24.0223 27.2288C23.9027 25.8709 22.7689 25.5162 21.6287 25.1648C20.5777 24.8406 19.0806 24.5153 17.9915 24.4543C13.9299 24.2291 16.6173 25.9188 18.2243 26.9415C19.3036 27.6292 21.3806 28.2841 21.4133 29.741L20.5102 35.7991C19.9053 36.8795 18.4299 35.6979 17.9599 36.9447C17.0275 39.4156 19.073 39.6941 21.0238 39.804C23.2705 39.9302 25.4466 39.1752 27.5551 39.1414C27.7151 39.1393 27.8641 39.1349 27.9947 39.2459C28.2765 39.47 28.1187 40.8311 28.1427 41.2729C28.1557 41.5307 28.2515 41.769 28.2602 42.0258C28.3167 43.6491 28.2221 45.2876 28.2406 46.912L28.0926 47.0872L25.4999 44.8133C22.1542 47.2537 18.3668 49.7344 14.1323 50.0858L9.72256 46.3245L3.69604 49.0478C3.72868 48.3482 3.64817 47.6258 3.69604 46.9273C3.7722 45.8186 4.00939 44.8644 3.91909 43.6567C3.90059 43.4162 3.7178 43.2879 3.70692 43.1247C3.68734 42.8309 3.92779 42.3326 3.92126 41.9224C3.91256 41.41 3.53719 40.7049 3.75262 40.2371C3.83313 40.0619 4.17586 39.9215 4.22155 39.7235C4.28901 39.4309 4.00613 39.2035 4.56428 38.8749C4.14866 38.6007 4.18347 38.024 4.24549 37.5747C4.27378 37.3691 4.44024 37.208 4.4533 37.0198C4.47397 36.7217 4.24114 36.2462 4.34668 35.8817H4.78297C4.73727 35.2224 5.1616 34.8329 4.97337 34.1126C4.8983 33.8276 4.48268 33.6285 4.56101 33.2292C5.07565 33.0496 4.499 32.4795 4.45874 32.1172C4.40543 31.645 4.81779 31.101 4.35103 30.7126C5.1072 30.3612 4.54578 30.0859 4.57625 29.6202C4.59583 29.3221 4.89177 28.4408 4.98752 28.1764C5.49236 26.7827 5.40967 25.5772 5.89166 24.2073C6.30619 23.0301 6.57928 21.8311 6.97206 20.7148C7.24297 19.9456 7.3224 19.3559 7.52259 18.6596C7.57155 18.4898 7.90775 18.1449 8.00676 17.8392C8.1569 17.3801 8.17975 16.2159 8.35819 15.933C8.45284 15.7839 8.74661 15.8068 8.90437 15.6925C9.30694 15.3999 9.77152 14.8678 10.1099 14.5055C10.8519 13.7102 11.8551 12.9823 12.0694 11.8431C12.8887 11.6843 12.8201 12.7027 13.1999 13.0389C13.3848 13.2032 13.6144 13.1977 13.7939 13.3141C13.8962 13.3805 13.9256 13.572 14.0246 13.6308C14.1562 13.7102 14.3706 13.6536 14.4358 13.7047C14.5066 13.7602 14.8482 15.1757 14.9429 15.4282C15.0103 15.6066 15.2159 16.2344 15.2388 16.2746C15.2823 16.3519 15.5554 16.353 15.6294 16.5902C15.724 16.8959 15.6065 17.3724 15.674 17.7424C15.7697 18.2657 16.1821 18.9925 16.6608 19.2569C17.0949 19.4962 18.0372 19.5561 18.5061 19.6943C18.7966 19.7802 19.4733 20.5516 19.8835 20.3819C20.5211 20.1175 19.9532 19.6301 20.0054 19.4212C20.0489 19.2471 20.3677 19.1274 20.4156 18.9403C20.4634 18.7531 20.3296 18.5497 20.3492 18.3408C20.384 17.9687 20.6005 17.6858 20.6419 17.4355C20.693 17.1222 20.6016 16.7806 20.6549 16.4694C20.705 16.1789 21.0249 15.8775 21.0771 15.5859C21.2316 14.7122 21.4383 12.9029 21.8452 12.1391C21.9236 11.9911 22.1433 11.9933 22.2239 11.8388C22.288 11.7148 22.8712 9.97176 22.9071 9.80094C23.2052 8.36911 21.9094 6.81978 22.5209 5.38469C22.5883 5.22584 22.7689 5.22584 22.8582 5.06372C23.3108 4.23901 22.9876 4.36631 23.7492 3.57206C24.2486 3.05198 24.8144 2.28167 25.3573 1.86496C25.4944 1.75942 25.7468 1.78771 25.9264 1.61689C26.3039 1.25785 26.3866 0.22641 26.9219 0.11108C27.1504 0.0621198 28.5724 -0.0542978 28.6965 0.0294793C28.963 0.410285 29.0501 1.14796 29.2949 1.49612C29.482 1.7616 29.7018 2.01837 29.9259 2.33607L29.9226 2.33716Z" fill="#777777"/>
<path d="M44.5901 47.5986C44.6184 47.6443 45.2353 48.3721 45.2777 48.4048C45.4213 48.5158 45.9098 48.5201 46.0241 48.7192C46.1383 48.9183 46.0175 49.2132 46.1253 49.3796C46.2188 49.5254 46.5713 49.4972 46.7019 49.619C46.8162 49.7256 46.851 50.0912 47.0022 50.2424C47.1719 50.4122 47.4178 50.3697 47.5331 50.4524C47.6376 50.5264 47.5636 50.7201 47.6137 50.7669C47.6637 50.8137 47.9194 50.7897 48.0924 50.8909C48.3143 51.0215 48.632 51.5785 48.8714 51.6438C49.1108 51.7091 50.065 51.2369 50.3533 51.0998C51.8123 50.4067 53.0711 49.5396 54.3071 48.6093C54.4823 48.4777 54.8424 48.3265 55.0437 48.1698C55.2178 48.172 55.554 48.6855 55.7226 48.8291C56.7563 49.7082 57.8932 50.6135 59.151 51.2434C59.4502 51.3936 59.8103 51.4229 60.0943 51.6036C59.9061 51.7657 59.0433 51.906 58.8692 51.8603C58.682 51.8114 58.5417 51.5002 58.348 51.3936C57.6691 51.016 56.6366 50.4024 55.9544 50.0901C54.8544 49.5875 54.4464 50.0238 53.4422 50.4688C51.8776 51.1629 50.1759 52.0834 48.3981 52.2966C47.9205 52.3532 47.4309 52.2716 46.9456 52.4185C46.8912 52.0877 47.0305 52.2455 47.21 52.1987C47.4972 52.1247 47.8182 52.0975 48.0978 51.9941C48.632 51.7972 47.5582 51.5339 47.3406 51.424C46.6671 51.0813 46.1296 50.7886 45.6411 50.188C45.4485 49.9519 45.3147 49.5026 45.0916 49.3231C44.8686 49.1436 44.4715 49.1381 44.3333 48.9934C44.1951 48.8487 44.2582 48.6213 44.1723 48.5016C44.0972 48.3972 43.8774 48.3961 43.7469 48.2742C43.5967 48.135 43.1082 47.5148 43.032 47.468C42.6752 47.2482 41.1835 47.7302 40.7516 47.9043C40.0781 48.1763 39.496 48.667 38.8693 48.9575C38.5614 49.1 38.0489 49.1207 37.7824 49.2839C37.3733 49.5341 36.7324 50.0684 36.1852 50.1968C35.9066 50.262 35.7293 50.1032 35.4877 50.1326C35.1885 50.1685 34.5912 50.5765 34.2789 50.6722C33.1431 51.0226 31.8527 51.0574 30.7124 51.4175C30.6025 51.3533 30.1978 51.0693 30.4241 50.9475C31.8135 50.6711 33.167 50.2348 34.4509 49.6473C34.9448 49.421 35.4475 49.1871 35.9404 48.9619C36.2124 48.8378 36.3875 48.4733 36.6476 48.3645C36.9772 48.2264 37.284 48.3395 37.6387 48.16C38.0315 47.962 38.2132 47.3277 38.6038 47.1677C38.8464 47.0676 39.0967 47.1188 39.3284 47.023C40.2619 46.6368 41.3271 46.0133 42.1333 45.4497C42.7959 44.9873 43.13 45.2506 43.6217 45.7881C44.2376 46.4616 44.268 47.0785 44.589 47.5942L44.5901 47.5986Z" fill="#777777"/>
<path d="M45.17 52.3489C45.9838 53.1366 46.3156 54.2964 46.8999 55.2321C48.1294 55.2876 49.4905 54.0255 50.5056 53.8558C51.3901 53.7078 51.2063 54.5695 51.3053 54.6935C51.3466 54.7447 51.6589 54.7294 51.7709 54.8056C51.8721 54.8741 51.8068 55.045 51.8591 55.1113C51.9875 55.2767 53.1647 56.3538 53.3899 56.5225C53.5498 56.6422 54.0046 56.7259 54.2625 56.9011C55.6715 57.8575 54.2092 58.2394 53.2506 57.8052C52.7219 57.5648 52.3759 56.8739 52.1289 56.6987C51.9951 56.603 51.7013 56.6237 51.6382 56.5344C51.5686 56.4376 51.6676 56.1895 51.463 56.0035C51.4152 55.96 50.3892 55.4301 50.3174 55.4105C49.5264 55.1973 49.5927 55.503 49.1434 55.6575C47.6028 56.1852 45.8413 56.7423 44.2506 57.1786C42.6599 57.6148 41.1726 57.8553 39.6113 58.0805L39.4981 57.8618C40.6471 57.5224 41.8493 57.2797 43.0059 56.912C44.1625 56.5442 45.1917 56.0775 46.2906 55.6847C46.0175 55.3953 45.8021 54.9209 45.5192 54.6631C45.2973 54.4618 44.6434 54.23 44.602 54.1669C44.4889 53.9939 44.5987 53.6088 44.4508 53.3672C44.3888 53.266 44.1788 53.2204 44.07 53.0713C43.9351 52.8852 43.7207 52.3978 43.6293 52.3129C43.4661 52.1639 43.0233 52.1291 42.7437 51.8397C42.5881 51.6786 42.4521 51.251 42.2704 51.1651C42.1355 51.1009 41.9614 51.25 41.8385 51.176C41.6502 51.0628 41.635 50.6222 41.1204 50.5721C40.659 50.5275 39.4383 51.3044 38.8834 51.4774C38.5983 51.5655 38.2371 51.5013 38.0293 51.6036C37.8879 51.6732 37.8683 51.9039 37.7867 51.9572C37.6572 52.042 37.259 52.0344 37.036 52.1312C36.6845 52.2825 35.9534 52.5382 35.7227 52.6568C35.4921 52.7754 35.4812 53.0006 35.343 53.0735C34.9731 53.2704 34.0167 53.2737 33.5521 53.4292C33.2954 53.5152 33.13 53.7208 32.9254 53.7818C32.5359 53.8971 30.9964 54.3323 30.7222 54.254C30.6363 54.2289 30.4567 54.0734 30.4274 53.9983C30.349 53.7992 30.5394 53.8362 30.645 53.7883C31.7645 53.278 34.1168 52.7938 34.9611 52.239C35.1537 52.1128 35.1591 51.9224 35.3202 51.8288C35.7956 51.5513 36.6203 51.4327 36.9903 51.213C37.2046 51.0857 37.2318 50.8289 37.4081 50.7538C37.6877 50.6341 38.0979 50.6875 38.3894 50.4677C38.8888 50.089 38.6995 50.2392 39.2327 49.977C39.7179 49.7387 40.9909 48.8161 41.512 49.099C41.6665 49.1827 41.7025 49.4439 41.8439 49.5331C41.9766 49.6179 42.1834 49.5875 42.3346 49.6952C42.5696 49.8616 42.5217 50.2631 42.772 50.4535C43.0222 50.6439 43.8741 50.805 44.0156 50.9486C44.1831 51.1194 44.0689 51.4099 44.1679 51.5579C44.2582 51.6939 44.5552 51.6275 44.6673 51.7113C44.8087 51.8157 44.7369 52.079 44.8272 52.2074C44.9023 52.314 45.1047 52.2847 45.171 52.3489H45.17Z" fill="#777777"/>
<path d="M9.85747 54.6304C10.3177 55.0983 10.5451 55.5737 11.1283 56.0285C11.2469 56.121 11.2915 56.3212 11.3785 56.343C11.8605 56.4659 11.9856 56.0655 12.2892 55.8588C12.5927 55.6521 13.2009 55.4301 13.1552 55.0428C13.6775 54.9264 13.8625 55.3322 14.1823 55.5792C15.5783 56.6552 16.885 57.9391 18.4245 58.9477L19.1263 59.7125C18.1449 59.904 18.0176 59.5417 17.38 59.1228C16.5629 58.5854 15.6751 58.0381 14.8536 57.5137C14.7176 57.4266 14.6937 57.2699 14.586 57.2145C14.3292 57.0806 13.7145 56.9664 13.4175 56.9838C13.1759 56.999 12.0933 57.4157 11.7887 57.5343C9.73235 58.3297 7.62922 59.6081 5.42925 59.8692C5.21709 59.8942 5.02125 60.1075 4.67417 59.9301C4.70355 59.743 4.89068 59.7408 5.02451 59.6842C6.44872 59.0771 7.91428 58.6126 9.31347 57.8858C9.54195 57.7661 11.0619 56.9305 11.0858 56.8304C11.1511 56.5595 10.6996 56.5072 10.581 56.4126C10.1273 56.0492 9.75302 55.9643 9.46144 55.7391C9.29062 55.6075 9.31347 55.3757 9.20902 55.2832C9.17638 55.2539 8.48984 54.8382 8.44632 54.8393C7.9763 54.848 6.89916 55.5998 6.38344 55.8218C5.21709 56.3255 3.17706 57.0523 1.90626 57.1067C1.81487 57.1111 1.72239 57.1035 1.63208 57.1024C1.79855 56.6944 2.28924 56.7901 2.64067 56.6443C4.14539 56.0176 5.65447 55.1788 7.09392 54.4661C7.43011 54.2997 8.51269 53.4858 8.80319 53.6719C8.86847 53.7132 9.27974 54.2833 9.45056 54.4465C9.58221 54.5717 9.79002 54.5641 9.85856 54.6348L9.85747 54.6304Z" fill="#777777"/>
<path d="M10.3862 49.421C10.8225 49.7877 11.2163 50.3763 11.6341 50.7234C11.8245 50.8811 12.0737 50.88 12.287 51.0541C12.5796 51.2935 12.7178 51.8494 12.9256 52.0486C13.7014 52.7895 15.2594 53.9515 16.2647 54.687C16.3986 54.7849 16.5672 54.7991 16.5172 55.0319C16.0526 55.1265 15.7044 54.6696 15.4248 54.5488C14.3063 54.0668 13.7514 53.9809 12.7722 53.068C12.6623 52.9657 12.6645 52.7405 12.5775 52.6665C12.4697 52.5752 12.0563 52.5436 11.8463 52.3652C11.6363 52.1867 11.6624 51.9463 11.5569 51.8679C11.4514 51.7896 11.2033 51.8005 11.0259 51.6623C10.8257 51.5067 10.6691 51.0628 10.458 50.8953C9.9586 50.4992 9.48749 50.5514 8.94348 50.769C6.08092 51.9136 3.68075 53.5565 0.45479 53.8122C0.254596 53.8285 0.136002 53.8775 0 53.6708L1.65052 53.2595C4.06482 52.0442 6.39862 50.942 8.68018 49.6353C9.58324 49.1185 9.35475 48.5549 10.3851 49.421H10.3862Z" fill="#777777"/>
<path d="M26.1199 48.1426C26.3375 48.5288 27.1589 49.0348 27.4582 49.3024C27.9184 49.7148 28.3025 50.2979 28.791 50.7408C29.3491 51.2467 30.0248 51.831 30.5383 52.3663C30.6504 52.4838 30.7918 52.5577 30.7527 52.7492C30.2565 52.8852 30.1597 52.4903 29.9551 52.3532C28.7594 51.5524 27.6257 50.7625 26.4887 49.9237C26.1493 49.6734 26.2124 49.2491 25.4899 49.2643C24.8698 49.2774 24.8208 49.5342 24.4433 49.7539C22.5893 50.8289 19.0119 52.5817 16.8489 53.0256C16.4964 53.0974 15.4378 53.401 15.8316 52.857C17.0371 52.4892 18.1632 52.0257 19.273 51.4273C20.9018 50.5482 22.7786 49.3481 24.2888 48.2884C24.4944 48.1448 25.5237 47.2243 25.6085 47.2091C25.9676 47.146 25.9763 47.8847 26.1221 48.1426H26.1199Z" fill="#777777"/>
<path d="M26.7684 52.9288C27.7901 53.6349 29.0696 54.1093 30.0532 54.8143C30.1478 54.8818 30.1718 55.0569 30.2893 55.1462C30.6722 55.4345 31.5448 55.1875 31.5133 56.0122C30.3709 56.2472 29.9182 55.6706 29.0903 55.2299C28.3515 54.8361 27.5834 54.4923 26.8392 54.1104C25.5248 53.4369 25.7011 53.1007 24.0506 53.7078C23.0126 54.0897 22.0008 54.6968 21.002 55.1168C19.5963 55.7065 18.1905 56.3114 16.6271 56.3386C16.5716 56.0307 16.701 56.1602 16.8653 56.0938C17.8413 55.701 18.4114 55.4802 19.3547 54.9906C21.0749 54.0962 22.7036 53.1377 24.4205 52.2281C24.7752 52.0399 25.2224 51.4262 25.6913 51.7766C25.8654 51.906 25.8502 52.1258 25.9796 52.2509C26.1015 52.3685 26.6542 52.8472 26.7695 52.9277L26.7684 52.9288Z" fill="#777777"/>
<path d="M57.3036 46.9447C57.6768 47.1993 58.1773 47.3701 58.5374 47.5627C58.7387 47.6704 58.9378 48.1393 59.4416 47.962C59.4035 48.1197 59.175 48.2459 59.0346 48.2699C58.9313 48.2873 57.7998 48.1839 57.6746 48.1524C57.1785 48.0283 56.4789 47.3287 56.0404 47.0687C55.021 46.466 54.6227 46.5051 53.6033 47.0611C53.4912 47.122 53.4738 47.2395 53.3726 47.295C51.6013 48.2775 49.6984 49.1392 47.7051 49.483C47.6627 49.2687 47.8042 49.223 47.9543 49.1349C48.4526 48.8422 49.2436 48.642 49.7952 48.3678C51.1977 47.6682 52.562 46.7826 53.8231 45.873C54.0776 45.6891 54.7348 44.9917 54.8654 44.9634C55.2712 44.8764 55.2821 45.403 55.467 45.5727C55.8087 45.885 56.8869 46.6618 57.3014 46.9436L57.3036 46.9447Z" fill="#777777"/>
<path d="M28.5549 57.7791C28.6386 57.8607 28.6332 58.0772 28.7442 58.1893C28.8791 58.3253 30.0727 58.8671 29.7745 59.1674C29.2936 59.2697 28.9596 58.705 28.6843 58.5734C28.1773 58.3318 27.4364 58.0979 26.9196 57.8379C26.5475 57.6507 26.4974 57.2808 25.9186 57.3102C25.169 57.3483 23.501 58.5429 22.7101 58.8943C22.0203 59.2012 21.1868 59.4645 20.4307 59.4938L24.2746 56.9751C24.712 56.529 25.2756 56.1754 25.7968 55.7783C25.9121 55.6901 25.9752 55.4725 26.0372 55.4617C26.4691 55.3866 26.9947 56.5747 27.2732 56.8326C27.5931 57.1285 27.6975 57.2406 27.9848 57.5343C28.148 57.7008 28.4385 57.6649 28.556 57.7791H28.5549Z" fill="#777777"/>
<path d="M43.2497 55.6858L42.3325 55.8044C42.227 55.7881 42.2977 55.5324 42.1639 55.416C42.1084 55.367 40.9747 54.8491 40.8245 54.7958C39.2719 54.242 39.2719 54.9122 38.0718 55.453C37.4473 55.7348 36.0906 56.1493 35.4269 56.1874C35.3007 56.195 35.1462 56.232 35.1005 56.0655C34.959 55.552 36.0514 55.5814 36.3299 55.4443C36.9838 55.1222 37.443 54.6533 37.9761 54.2681C38.2666 54.0581 38.6648 54.1027 38.9466 53.933C39.1468 53.8133 39.1816 53.587 39.2589 53.5391C39.4449 53.4227 39.8507 53.4467 40.0596 53.0909C40.3023 53.043 40.7581 53.5881 40.9997 53.7513C41.6122 54.1637 42.5882 54.5423 43.0343 55.1962C43.1355 55.3442 43.1757 55.5259 43.2508 55.6858H43.2497Z" fill="#777777"/>
<path d="M87.5246 39.9066H84.6446V29.3466H79.9779V26.5199H84.6446V19.4266H87.5246V39.9066ZM77.3646 19.9866C77.3646 22.7066 77.1868 25.231 76.8312 27.5599L82.7512 37.1599L80.2712 38.8133L75.8712 31.3466C75.1423 33.6577 74.2001 35.4533 73.0446 36.7333C71.889 38.0133 70.5557 38.6977 69.0446 38.7866V35.6666C70.1646 35.4888 71.1246 34.6977 71.9246 33.2933C72.7423 31.8888 73.3646 30.0222 73.7912 27.6933C74.2179 25.3644 74.4312 22.7599 74.4312 19.8799L77.3646 19.9866ZM98.8417 26.8399C96.2106 26.8399 94.104 26.5377 92.5217 25.9333C90.9395 25.3288 90.1484 24.3688 90.1484 23.0533C90.1484 21.7377 90.9395 20.7777 92.5217 20.1733C94.104 19.551 96.2106 19.2399 98.8417 19.2399C101.473 19.2399 103.571 19.551 105.135 20.1733C106.7 20.7777 107.482 21.7377 107.482 23.0533C107.482 24.3688 106.7 25.3288 105.135 25.9333C103.571 26.5377 101.473 26.8399 98.8417 26.8399ZM98.8417 21.4799C97.1528 21.4799 95.7928 21.6133 94.7617 21.8799C93.7306 22.1466 93.2151 22.5377 93.2151 23.0533C93.2151 23.5688 93.7306 23.9599 94.7617 24.2266C95.7928 24.4933 97.1528 24.6266 98.8417 24.6266C100.513 24.6266 101.864 24.4933 102.895 24.2266C103.926 23.9599 104.442 23.5688 104.442 23.0533C104.442 22.5377 103.926 22.1466 102.895 21.8799C101.864 21.6133 100.513 21.4799 98.8417 21.4799ZM100.282 31.4533H107.375V36.4399H93.1884V37.7466H107.642V39.7466H90.3351V34.7333H104.522V33.4533H90.2817V31.4533H97.4017V29.9866H89.0551V27.7199H108.602V29.9866H100.282V31.4533ZM124.799 39.9066V19.4266H127.679V39.9066H124.799ZM115.892 19.7466C117.066 19.7466 118.114 20.0222 119.039 20.5733C119.963 21.1244 120.683 21.8977 121.199 22.8933C121.714 23.871 121.972 24.991 121.972 26.2533C121.972 27.5333 121.714 28.6711 121.199 29.6666C120.683 30.6444 119.963 31.4088 119.039 31.9599C118.114 32.511 117.066 32.7866 115.892 32.7866C114.719 32.7866 113.661 32.511 112.719 31.9599C111.794 31.4088 111.074 30.6444 110.559 29.6666C110.043 28.6711 109.786 27.5333 109.786 26.2533C109.786 24.9733 110.043 23.8444 110.559 22.8666C111.074 21.8888 111.794 21.1244 112.719 20.5733C113.661 20.0222 114.719 19.7466 115.892 19.7466ZM115.892 22.4666C114.897 22.4666 114.097 22.831 113.492 23.5599C112.888 24.271 112.586 25.1688 112.586 26.2533C112.586 27.3733 112.888 28.2888 113.492 28.9999C114.097 29.711 114.897 30.0666 115.892 30.0666C116.888 30.0666 117.688 29.711 118.292 28.9999C118.897 28.271 119.199 27.3555 119.199 26.2533C119.199 25.1688 118.888 24.271 118.266 23.5599C117.661 22.831 116.87 22.4666 115.892 22.4666ZM123.359 37.8533C122.737 38.1555 121.892 38.3866 120.826 38.5466C119.759 38.7066 118.603 38.7866 117.359 38.7866H109.172V35.9599H117.519C118.728 35.9599 119.848 35.8888 120.879 35.7466C121.91 35.5866 122.737 35.3555 123.359 35.0533V37.8533ZM134.816 22.0666V19.5866H151.776V26.4933H148.87V22.0666H134.816ZM153.11 30.2266H133.563V27.7466H140.55V24.1199H143.43V27.7466H153.11V30.2266ZM143.35 31.7999C145.963 31.7999 148.061 32.1377 149.643 32.8133C151.243 33.4711 152.043 34.5022 152.043 35.9066C152.043 37.3111 151.243 38.3422 149.643 38.9999C148.061 39.6755 145.963 40.0133 143.35 40.0133C140.736 40.0133 138.63 39.6755 137.03 38.9999C135.447 38.3422 134.656 37.3111 134.656 35.9066C134.656 34.4844 135.447 33.4444 137.03 32.7866C138.612 32.1288 140.718 31.7999 143.35 31.7999ZM143.35 37.6666C144.967 37.6666 146.31 37.5244 147.376 37.2399C148.443 36.9377 148.976 36.4933 148.976 35.9066C148.976 35.3377 148.443 34.9022 147.376 34.5999C146.31 34.2977 144.967 34.1466 143.35 34.1466C141.696 34.1466 140.336 34.2977 139.27 34.5999C138.221 34.8844 137.696 35.3199 137.696 35.9066C137.696 36.4933 138.23 36.9377 139.296 37.2399C140.363 37.5244 141.714 37.6666 143.35 37.6666ZM169.387 19.4266H172.293V35.3999H169.387V34.3599H163.84V32.1733H169.387V19.4266ZM160.64 27.4799C158.862 27.4799 157.44 27.1333 156.373 26.4399C155.307 25.7288 154.773 24.7244 154.773 23.4266C154.773 22.1288 155.307 21.1333 156.373 20.4399C157.44 19.7288 158.862 19.3733 160.64 19.3733C162.4 19.3733 163.813 19.7288 164.88 20.4399C165.947 21.1333 166.48 22.1288 166.48 23.4266C166.48 24.7244 165.947 25.7288 164.88 26.4399C163.813 27.1333 162.4 27.4799 160.64 27.4799ZM160.64 21.6399C159.716 21.6399 158.969 21.7999 158.4 22.1199C157.849 22.4222 157.573 22.8577 157.573 23.4266C157.573 24.0133 157.849 24.4577 158.4 24.7599C158.951 25.0444 159.698 25.1866 160.64 25.1866C161.565 25.1866 162.302 25.0444 162.853 24.7599C163.405 24.4577 163.68 24.0133 163.68 23.4266C163.68 22.8577 163.405 22.4222 162.853 22.1199C162.302 21.7999 161.565 21.6399 160.64 21.6399ZM153.68 31.0266V28.6533H162.107C164.827 28.6533 166.782 28.3866 167.973 27.8533V30.2533C167.351 30.5377 166.516 30.7422 165.467 30.8666C164.436 30.9733 163.173 31.0266 161.68 31.0266V34.4933H158.8V31.0266H153.68ZM172.693 39.7466H155.387V33.3999H158.267V37.1866H172.693V39.7466Z" fill="#777777"/>
</svg>
