<svg width="60" height="60" viewBox="0 0 60 60" fill="none" xmlns="http://www.w3.org/2000/svg">
<path d="M60 30C60 46.5689 46.5689 60 30 60C13.4312 60 0 46.5689 0 30C0 13.4311 13.4312 0 30 0C46.5689 0 60 13.4311 60 30Z" fill="url(#paint0_linear_64_9627)"/>
<path d="M38.1414 14.2632H21.8625C17.6678 14.2632 14.2659 17.6651 14.2659 21.8598V38.1388C14.2659 42.3334 17.6678 45.7354 21.8625 45.7354H38.1414C42.3361 45.7354 45.7381 42.3334 45.7381 38.1388V21.8598C45.7381 17.6651 42.3361 14.2632 38.1414 14.2632ZM43.0247 37.5952C43.0247 40.5909 40.5936 43.022 37.5979 43.022H22.4046C19.4088 43.022 16.9778 40.5909 16.9778 37.5952V22.4019C16.9778 19.4061 19.4088 16.9751 22.4046 16.9751H37.5979C40.5936 16.9751 43.0247 19.4061 43.0247 22.4019V37.5952Z" fill="white"/>
<path d="M30.0174 21.8597C25.5252 21.8597 21.8787 25.5063 21.8787 29.9985C21.8787 34.4906 25.5252 38.1372 30.0174 38.1372C34.5095 38.1372 38.1561 34.4906 38.1561 29.9985C38.1561 25.5063 34.5095 21.8597 30.0174 21.8597ZM30.0174 35.4253C27.0276 35.4253 24.5906 32.9882 24.5906 29.9985C24.5906 27.0087 27.0276 24.5716 30.0174 24.5716C33.0071 24.5716 35.4442 27.0087 35.4442 29.9985C35.4442 32.9882 33.0071 35.4253 30.0174 35.4253Z" fill="white"/>
<path d="M38.6995 22.9453C37.8026 22.9453 37.0718 22.2145 37.0718 21.3176C37.0718 20.4206 37.8026 19.6898 38.6995 19.6898C39.5964 19.6898 40.3273 20.4206 40.3273 21.3176C40.3273 22.2145 39.5964 22.9453 38.6995 22.9453Z" fill="white"/>
<defs>
<linearGradient id="paint0_linear_64_9627" x1="8.68231" y1="9.81478" x2="101.017" y2="107.51" gradientUnits="userSpaceOnUse">
<stop stop-color="#1A3AD5"/>
<stop offset="0.1" stop-color="#4F47E4"/>
<stop offset="0.2" stop-color="#7222A7"/>
<stop offset="0.3" stop-color="#AD1E6F"/>
<stop offset="0.4" stop-color="#BE144E"/>
<stop offset="0.5" stop-color="#D41919"/>
<stop offset="0.6" stop-color="#F56040"/>
<stop offset="0.7" stop-color="#F77737"/>
<stop offset="0.8" stop-color="#FCAF45"/>
<stop offset="0.9" stop-color="#FFDC80"/>
</linearGradient>
</defs>
</svg>
