<svg width="40" height="40" viewBox="0 0 40 40" fill="none" xmlns="http://www.w3.org/2000/svg">
<path d="M40 20C40 31.0459 31.0459 40 20 40C8.9541 40 0 31.0459 0 20C0 8.9541 8.9541 0 20 0C31.0459 0 40 8.9541 40 20Z" fill="#004AA9"/>
<path d="M24.9944 18.9385L24.7545 20.7689C24.7139 21.0746 24.4415 21.3046 24.1183 21.3046H20.9986V28.9573C20.6697 28.9855 20.3363 29 19.9994 29C19.2457 29 18.5102 28.9284 17.7993 28.792V21.3046H15.4C15.1797 21.3046 15 21.1331 15 20.9231V18.6327C15 18.4227 15.1797 18.2512 15.4 18.2512H17.7993V14.8164C17.7993 12.7085 19.5899 11 21.7994 11H24.5987C24.819 11 24.9987 11.1715 24.9987 11.3815V13.6719C24.9987 13.8819 24.819 14.0534 24.5987 14.0534H22.5987C21.7153 14.0534 20.9994 14.7365 20.9994 15.5801V18.2519H24.3588C24.7444 18.2519 25.0422 18.5742 24.9951 18.9392L24.9944 18.9385Z" fill="white"/>
</svg>
