<svg width="16" height="17" viewBox="0 0 16 17" fill="none" xmlns="http://www.w3.org/2000/svg">
<path d="M8.66667 13.1471H12.6667V7.1338L8 3.50714L3.33333 7.1338V13.1471H7.33333V9.14714H8.66667V13.1471ZM14 13.8138C14 14.0005 13.9356 14.1582 13.8067 14.2871C13.6778 14.416 13.52 14.4805 13.3333 14.4805H2.66667C2.48 14.4805 2.32222 14.416 2.19333 14.2871C2.06444 14.1582 2 14.0005 2 13.8138V6.8138C2 6.59158 2.08444 6.4138 2.25333 6.28047L7.58667 2.1338C7.71111 2.04491 7.84889 2.00047 8 2.00047C8.15111 2.00047 8.28889 2.04491 8.41333 2.1338L13.7467 6.28047C13.9156 6.4138 14 6.59158 14 6.8138V13.8138Z" fill="white"/>
</svg>
