<svg width="24" height="24" viewBox="0 0 24 24" fill="none" xmlns="http://www.w3.org/2000/svg">
<path d="M8.02441 2.40234C10.1696 -0.800636 13.8313 -0.800636 15.9756 2.40234C19.7573 1.65375 22.3462 4.24268 21.5977 8.02441C24.8006 10.1696 24.8006 13.8313 21.5977 15.9756C22.3462 19.7573 19.7573 22.3462 15.9756 21.5977C13.8304 24.8006 10.1687 24.8006 8.02441 21.5977C4.24268 22.3462 1.65375 19.7573 2.40234 15.9756C-0.800636 13.8304 -0.800636 10.1687 2.40234 8.02441C1.65375 4.24268 4.24268 1.65375 8.02441 2.40234ZM13.8564 10.1455C12.8324 9.1218 11.1725 9.12182 10.1484 10.1455C9.12433 11.1696 9.12433 12.8304 10.1484 13.8545C11.1725 14.8783 12.8324 14.8784 13.8564 13.8545C14.8805 12.8304 14.8805 11.1696 13.8564 10.1455Z" fill="white"/>
</svg>
