<svg width="15" height="12" viewBox="0 0 15 12" fill="none" xmlns="http://www.w3.org/2000/svg">
<path d="M7.47915 11.9735C7.27804 11.9735 7.03323 11.8453 6.82447 11.6307C6.61783 11.4183 6.40765 11.2036 6.20431 10.9958L6.19995 10.9914C5.60759 10.3862 4.99521 9.76072 4.4144 9.13497C3.86493 8.54281 3.15923 8.23253 2.317 8.21261C1.76387 8.19953 0.235505 8.17962 0.153744 8.09371C0.125116 8.06366 0.0380531 7.97221 0.0197923 7.64779C-0.00659745 7.17901 -0.00659745 4.8212 0.0197923 4.35242C0.0380531 4.02799 0.125116 3.93655 0.153744 3.9065C0.235505 3.82059 1.76387 3.80067 2.317 3.78759C3.15912 3.76779 3.86481 3.45739 4.4144 2.86523C4.99509 2.23948 5.60748 1.61397 6.19972 1.00908L6.20431 1.00437C6.40765 0.796726 6.61783 0.582016 6.82447 0.369662C7.03335 0.154951 7.27804 0.0268555 7.47915 0.0268555C7.52981 0.0268555 7.57328 0.0355759 7.61192 0.0536059C7.88501 0.180995 8.06644 0.368012 8.06479 0.866725C8.05925 2.54588 8.05925 9.45421 8.06479 11.1334C8.06644 11.6321 7.88489 11.8191 7.61192 11.9465C7.57328 11.9645 7.52981 11.9732 7.47915 11.9732V11.9735Z" fill="white"/>
<path d="M10.3168 9.29615C10.2045 9.29615 10.0919 9.25632 10.0019 9.17536C9.80832 9.00131 9.79253 8.70328 9.96654 8.50966C10.6073 7.79671 10.9334 6.96615 10.9362 6.04096C10.9357 6.0313 10.9348 6.01692 10.9348 5.99995C10.9348 5.98298 10.9355 5.96861 10.9362 5.95883C10.9335 5.03364 10.6073 4.20308 9.96654 3.49012C9.79253 3.29651 9.80843 2.99848 10.0019 2.82443C10.1954 2.65037 10.4934 2.66628 10.6674 2.8599C11.0622 3.29922 11.3651 3.7832 11.5677 4.29841C11.7739 4.82258 11.8785 5.38469 11.8786 5.9692C11.8786 5.98098 11.8783 5.99147 11.8778 5.99995C11.8783 6.00844 11.8786 6.01893 11.8786 6.03059C11.8785 6.61521 11.7739 7.17733 11.5677 7.70149C11.3651 8.2167 11.0622 8.70069 10.6674 9.14001C10.5743 9.24359 10.4458 9.29627 10.3168 9.29627V9.29615Z" fill="white"/>
<path d="M11.5536 12C11.4295 12 11.3057 11.9513 11.2132 11.8547C11.0332 11.6667 11.0396 11.3684 11.2276 11.1882C12.7885 9.69274 13.5154 8.04423 13.5154 6C13.5154 3.95577 12.7884 2.30726 11.2276 0.811831C11.0397 0.631766 11.0332 0.333387 11.2132 0.145309C11.3932 -0.0426516 11.6915 -0.049133 11.8796 0.130932C12.7159 0.932267 13.3292 1.76542 13.7545 2.67812C13.9843 3.17117 14.1598 3.6944 14.2761 4.23294C14.3967 4.79152 14.4579 5.38604 14.4579 5.99989C14.4579 6.61373 14.3967 7.20825 14.2761 7.76683C14.1598 8.30549 13.9843 8.8286 13.7545 9.32166C13.3292 10.2344 12.7159 11.0676 11.8796 11.8688C11.7883 11.9563 11.6708 11.9998 11.5537 11.9998L11.5536 12Z" fill="white"/>
</svg>
