<svg width="60" height="60" viewBox="0 0 60 60" fill="none" xmlns="http://www.w3.org/2000/svg">
<path d="M60 30C60 46.5689 46.5689 60 30 60C13.4312 60 0 46.5689 0 30C0 13.4311 13.4312 0 30 0C46.5689 0 60 13.4311 60 30Z" fill="#DE0000"/>
<path d="M42.9287 17.2876H17.0721C14.5172 17.2876 12.4456 19.3593 12.4456 21.9126V38.0844C12.4456 40.6392 14.5172 42.7094 17.0721 42.7094H42.9287C45.4821 42.7094 47.5538 40.6392 47.5538 38.0844V21.9126C47.5538 19.3593 45.4821 17.2876 42.9287 17.2876ZM34.1543 31.1159L26.9639 34.7096C26.1334 35.1248 25.1579 34.5223 25.1579 33.5952V26.4078C25.1579 25.4807 26.1349 24.8782 26.9639 25.2919L34.1543 28.8856C35.0724 29.3447 35.0724 30.6568 34.1543 31.1159Z" fill="white"/>
</svg>
